<svg xmlns="http://www.w3.org/2000/svg" width="34" height="40"><path fill="#215bf0" d="M15.736 39.716l-.01-.007-.039-.026a31.46 31.46 0 01-.64-.451 52.367 52.367 0 01-7.09-6.21C4.14 28.991 0 23.17 0 16.666a16.667 16.667 0 1133.333 0c0 6.503-4.14 12.326-7.956 16.354a52.353 52.353 0 01-7.09 6.211 31.085 31.085 0 01-.64.451l-.04.026-.01.007-.004.003s-.002.001-.926-1.386l-.926 1.387zm1.855.004l-.924-1.387-.926 1.387a1.67 1.67 0 001.85 0z"/><path fill="#fff" d="M22.67 16a6 6 0 11-12 0 6 6 0 0112 0z"/></svg>